<svg xmlns="http://www.w3.org/2000/svg" width="199.746" height="200" viewBox="0 0 199.746 200">
  <defs>
    <style>
      .cls-1 {
        fill-rule: evenodd;
        opacity: 0.08;
      }
    </style>
  </defs>
  <path id="Holidays._Attribute_as_Freepik_from_Flaticon.com" data-name="Holidays. Attribute as Freepik from Flaticon.com" class="cls-1" d="M1150.41,324.975c-1.06-1.2-26.47-29.313-54.82-30.3-14.97-.511-25.1,2.5-31.23,5.362-1.68-4.312-8.08-16.688-29.04-27.3-7.54-3.81-16.78-5.743-27.48-5.743a118.115,118.115,0,0,0-35.193,5.843,1.65,1.65,0,0,0-.155,3.052c1,0.471,24.617,11.476,35.2,11.476a12.769,12.769,0,0,0,1.74-.113,91.47,91.47,0,0,0,9.02-1.783l-3.62,2.805a1.653,1.653,0,0,0,.29,2.791l8.15,3.97c-2.56-.231-5.2-0.368-7.89-0.414l-0.77-.007c-31.858,0-61.774,29.932-63.031,31.207a1.651,1.651,0,0,0-.349,1.81,1.539,1.539,0,0,0,1.55,1c1.394-.021,34.213-0.572,43.3-6.721a106.14,106.14,0,0,0,9.134-6.985l-2.77,5.63a1.609,1.609,0,0,0,.08,1.6,1.646,1.646,0,0,0,1.4.78h16.91a1.629,1.629,0,0,0,1.4-.789l2.12-3.422-0.21,1.885a1.654,1.654,0,0,0,1.24,1.78,58.126,58.126,0,0,0,13.16,1.432c0.05,0,.11,0,0.16,0-11.46,6.36-21.53,15.537-30.34,26.131a0.442,0.442,0,0,1-.07.033l0.02,0.027c-13.2,15.881-23.556,34.985-31.359,52.895-0.042.03-.1,0.068-0.1,0.075l0.046,0.058a349.893,349.893,0,0,0-19.452,58.437,1.661,1.661,0,0,0,.84,1.813,32.277,32.277,0,0,0,15.3,3.721,40.137,40.137,0,0,0,16.7-3.707,1.659,1.659,0,0,0,.9-1.437c1.526-73.668,53.849-131.91,60.309-138.822,5.24,13.315,16.62,21.893,17.12,22.268a1.665,1.665,0,0,0,2.17-.161l1.34-1.342-1.34,3.789a1.636,1.636,0,0,0,.27,1.591l10.62,13.088a1.654,1.654,0,0,0,2.79-.346l2.66-5.691a102.038,102.038,0,0,0,.28,11.477c0.91,10.9,21.11,36.7,21.97,37.788a1.659,1.659,0,0,0,2.95-.831c0.21-1.8,4.83-44.473-15.75-69.071a90.385,90.385,0,0,0-16.92-15.9,44.743,44.743,0,0,0,5.96-.673,1.656,1.656,0,0,0,1.32-1.712l-0.05-.785,1.28,2.326a1.651,1.651,0,0,0,1.37.858l14.84,0.749h0.09c0.01,0,.02,0,0.02,0a1.65,1.65,0,0,0,1.38-2.584l-1.68-3.927a90.644,90.644,0,0,0,7.03,5.912c7.76,5.839,36.63,7.784,37.84,7.86a1.689,1.689,0,0,0,1.6-.925A1.632,1.632,0,0,0,1150.41,324.975ZM994.769,375.61a184.082,184.082,0,0,1,15.691-22.756,7.8,7.8,0,0,1,5.68-.15c2.02,0.875,3.53,3.008,4.53,6.252-4,6.544-8.04,13.788-11.85,21.621C1004.87,376.168,999.21,375.254,994.769,375.61Zm-2.234,3.886c2.77-.616,10.385-1.591,14.6,4.631-2.85,6.105-5.54,12.553-7.966,19.291a18.292,18.292,0,0,0-17.213-2.956C985.1,393.512,988.62,386.443,992.535,379.5Zm-23.381,53.549c2.947-1.348,13.706-5.575,21.873-.171q-1.262,6.52-2.049,13.261a38.5,38.5,0,0,0-23.9-.25C966.206,442.088,967.565,437.758,969.154,433.045Zm1.511-4.392c2.539-7.238,5.607-15.224,9.188-23.471,2.449-1.49,9.923-4.938,18.078,1.724a197.28,197.28,0,0,0-6.17,22.284C984.231,424.97,975.584,426.9,970.665,428.653Zm2.931,35.038a29.225,29.225,0,0,1-12.611-2.757c0.443-1.847,1.406-5.691,2.891-10.921,2.548-1.009,13.257-4.652,24.723-.267-0.341,3.629-.587,7.293-0.69,11A38.106,38.106,0,0,1,973.6,463.691ZM1023,355.215a10.984,10.984,0,0,0-5.47-5.723,9.529,9.529,0,0,0-3.6-.752c9.46-10.738,20.28-19.657,32.57-25.1A256.46,256.46,0,0,0,1023,355.215Zm90.22-37.99a96.742,96.742,0,0,1-12.79-11.761,1.654,1.654,0,0,0-2.77,1.735l4.23,9.825-11.25-.568-4.36-7.943a1.664,1.664,0,0,0-1.91-.793,1.639,1.639,0,0,0-1.2,1.677l0.37,6.612a51.974,51.974,0,0,1-9.36.4,1.652,1.652,0,0,0-.93,3.075,81.51,81.51,0,0,1,20.77,18.23c15.99,19.105,15.94,50.863,15.33,62.308-6.68-8.931-18.04-25.424-18.64-32.59a109.119,109.119,0,0,1,.31-19.757,1.661,1.661,0,0,0-1.19-1.793,1.572,1.572,0,0,0-.45-0.066,1.667,1.667,0,0,0-1.51.956l-5.29,11.347-8.36-10.311,3.48-9.825a1.655,1.655,0,0,0-2.73-1.722l-5.49,5.478c-3.12-2.624-11.97-10.8-15.63-21.947a1.654,1.654,0,0,0-2.04-1.072c-1.01.29-2.12,0.554-3.48,0.827a1.792,1.792,0,0,0-.6.259,1.626,1.626,0,0,0-.63-0.011,51.139,51.139,0,0,1-8.57.7,59.128,59.128,0,0,1-10.94-1.029l0.83-7.683a1.657,1.657,0,0,0-3.06-1.043l-5.48,8.868h-13.3l5.54-11.235a1.653,1.653,0,0,0-.53-2.078,1.672,1.672,0,0,0-2.15.2,109.186,109.186,0,0,1-15.224,12.657c-5.969,4.039-25.978,5.6-37.146,6.032,8.466-7.593,32.807-27.285,57.53-27.285l0.72,0.008A91.612,91.612,0,0,1,1034,300.02a1.657,1.657,0,0,0,1.51-2.808l3.54-5.611a1.652,1.652,0,0,0-.23-2.052,1.671,1.671,0,0,0-2.06-.227l-7.67,4.846-10.13-4.929,8.47-6.56a1.653,1.653,0,0,0-1.58-2.861,95.937,95.937,0,0,1-16.89,4.14,8.551,8.551,0,0,1-1.28.077c-7.38,0-22.571-6.216-29.795-9.372a115.675,115.675,0,0,1,29.935-4.39c10.19,0,18.93,1.815,25.98,5.387,23.85,12.071,27.81,26.566,27.84,26.706,0.03,0.09.1,0.3,0.14,0.384l0.09,0.215a1.649,1.649,0,0,0,2.29.824c5.53-2.893,15.6-6.385,31.3-5.838,21.49,0.749,41.95,18.737,49.44,26.095C1135.06,323.171,1118.15,320.941,1113.22,317.225Z" transform="translate(-951.094 -267)"/>
</svg>
